<?xml version="1.0" encoding="UTF-8"?><svg id="Layer_2" xmlns="http://www.w3.org/2000/svg" width="1825.87" height="203.3" viewBox="0 0 1825.87 203.3"><defs><style>.cls-1{fill:#fff;}</style></defs><g id="Layer_1-2"><path class="cls-1" d="M332.26,2.3l-106.63,199h71.84l16.89-36h78.38l6.69,36h71.83L430.1,2.3h-97.84ZM375.67,42.3h.59l13.35,84h-58.07l44.13-84Z"/><polygon class="cls-1" points="520.84 2.3 489.97 201.3 660.53 201.3 667.63 153.3 565.83 153.3 589.64 2.3 520.84 2.3"/><polygon class="cls-1" points="1168.84 2.3 1103 151.3 1102.44 151.3 1084.11 2.3 996.2 2.3 919.88 201.3 987.12 201.3 1037.34 57.3 1037.9 57.3 1053.84 201.3 1135.35 201.3 1197.23 61.3 1197.86 61.3 1208.16 201.3 1277.02 201.3 1259.02 2.3 1168.84 2.3"/><polygon class="cls-1" points="1763.74 2.3 1740.34 148.3 1739.77 148.3 1674.31 2.3 1581.26 2.3 1550.34 201.3 1615.9 201.3 1635.99 58.3 1636.56 58.3 1698.6 201.3 1794.87 201.3 1825.87 2.3 1763.74 2.3"/><path class="cls-1" d="M707.74,190.04c-18.89-10.79-27.74-29.03-21.86-59.86l10.9-57.57c5.94-30.75,21.86-49.31,44.93-60.1,23.07-10.79,52.93-12.51,87.17-12.51s63.11,1.72,82.01,12.51c18.61,10.79,27.45,29.35,21.51,60.1l-10.9,57.57c-5.87,30.74-21.58,48.98-44.29,59.86-22.71,10.88-53.14,12.84-87.31,12.84s-63.26-1.96-82.08-12.84M852.72,126.26l9.76-48.17c6.16-31.32-5.59-34.51-42.17-34.51-34.6,0-49.6,2.86-56.11,34.51l-9.76,48.17c-6.44,31.89,6.16,34.75,42.17,34.75s49.6-3.11,56.11-34.75"/><path class="cls-1" d="M1319.57,190.04c-18.89-10.79-27.67-29.03-21.86-59.86l10.97-57.57c5.94-30.75,21.86-49.31,44.86-60.1C1376.45,1.72,1406.46.08,1440.7.08s63.11,1.72,82.15,12.51c18.54,10.79,27.45,29.35,21.51,60.1l-10.97,57.57c-5.94,30.74-21.51,48.98-44.29,59.86-22.78,10.88-53.14,12.84-87.38,12.84-34.6,0-63.19-1.96-82.01-12.84M1464.62,126.26l9.69-48.17c6.23-31.32-5.59-34.51-42.17-34.51-34.6,0-49.67,2.86-56.11,34.51l-9.76,48.17c-6.51,31.89,6.23,34.75,42.24,34.75s49.67-3.11,56.11-34.75"/><path class="cls-1" d="M205.66.3c34.84,0,44.23,12.81,38.98,38.67l-6.51,31.33h-64.19l3.56-17.11c2.37-11.47.34-14-17.74-15.15-5.01-.32-14.77-.57-22.49-.57-12.39,0-25.12.33-31.99.9-10.95,1.15-13.67,3.44-14.52,7.7-1.44,7.12-.33,10.32,15.96,18.02l100.4,47.75c19.86,9.42,22.24,15.4,19.27,30.05l-4.16,19.41c-6.53,30.55-16.3,42.01-57.71,42.01H48.61c-38.52,0-53.28-12.85-47.35-41.43l5.94-28.57h61.46l-4.14,19.94c-1.19,5.73.84,9.4,9.49,10.87,7.12,1.15,15.93,1.39,32.78,1.39,10.93,0,23.38-.33,31.69-.82,10.59-.9,12.96-2.61,14.15-8.59,1.44-6.87-.34-9.4-21.86-19.7l-74.21-35.07c-29.23-13.98-34.57-24.85-30.75-43.65l3.9-18.64C36.14,7.74,47.41.3,90.02.3h115.64Z"/></g></svg>
